<?xml version="1.0" encoding="UTF-8"?>
<svg xmlns="http://www.w3.org/2000/svg" viewBox="0 0 265.25 152.16">
  <defs>
    <style>
      .cls-1, .cls-2 {
        fill: #231f20;
      }

      .cls-3, .cls-4, .cls-5 {
        fill: #fff;
      }

      .cls-4 {
        stroke-width: 4px;
      }

      .cls-4, .cls-2 {
        stroke: #fff;
        stroke-miterlimit: 10;
      }

      .cls-5 {
        font-family: RebelHero, 'Rebel Hero';
        font-size: 12px;
      }
    </style>
  </defs>
  <g id="Layer_1" data-name="Layer 1">
    <g>
      <path class="cls-4" d="M7.54,102.81l21.66-19.66c-8.64,7.2-17.26,14.38-22.4,19.2.25.15.49.31.74.46Z"/>
      <path class="cls-4" d="M29.2,83.15c13.58-11.31,27.19-22.65,27.41-24.87l-27.41,24.87Z"/>
      <path class="cls-4" d="M259,35.63c-2.25-1.67-4.24-3.71-6.18-5.75-5.3-5.58-10.32-11.44-15.84-16.78-2.72-2.64-6.43-4.33-3.92-9.82-2.76.88-5.65,2.42-6.16,1.85-2.68-3.01-4.02-.1-5.7.87-4.04,2.36-7.81,5.29-12.05,7.19-5.42,2.43-11.11,4.33-16.83,5.98-7.58,2.2-15.21,4.52-22.98,5.73-11.29,1.76-22.77,2.3-34.11,3.84-23.73,3.23-47.32,3.65-70.92-1.35-11.17-2.37-22.51-4.16-33.85-5.51-9-1.07-19.88,7.1-22.67,15.64-4.35,13.31-4.03,27.08-4.42,40.79-.16,5.7-.76,14.1-1.29,21.71.07.04,1.78-.12,1.85-.08.23.06-1.18.33-.94.42,1.8.73,3.49,1.74,5.15,2.82,3.06,1.53,6.15,2.97,9.38,4.22,1.39.54,2.82,1.18,9.19,1.35l156.26-14.74c-4.14-.2-3.09-.63-1.78-.63.93,0,1.72.21,2.38.57l19.16-1.81c2.15-13.36,5.24-19.99,14.61-30.09,2.41-2.6,5.89-4.72,9.27-5.8,4.4-1.4,9.22-1.48,13.84-2.24,3.76-.61,7.5-1.98,11.23-1.93,5.27.07,7.93-1.65,10.71-7.42,2.22-4.6-.23-6.69-3.41-9.06Z"/>
    </g>
  </g>
  <g id="Layer_2" data-name="Layer 2">
    <g>
      <path class="cls-1" d="M97.64,34.23c2.27,2.24,4.53,4.47,6.79,6.7,6.48,6.4,12.94,12.8,19.44,19.18.42.41.99.74,1.56.97,6.4,2.57,12.83,5.1,19.22,7.69.9.36,1.45.24,2.18-.34,5.29-4.21,10.62-8.37,15.94-12.55.31-.24.63-.46,1.04-.76,13.15,13.42,29.2,29.29,42.29,42.66-.06.06-3.09-2.39-3.15-2.33-8.29-7.29-16.57-14.58-24.86-21.86-.07.04-.14.07-.21.11,1.68,3.39,3.35,6.78,5.03,10.16-.08.04-.16.08-.24.12-6.18-7.42-12.35-14.83-18.61-22.35-3.21,4.81-6.35,9.5-9.48,14.19-.09-.01-.17-.02-.26-.04.24-2.71.49-5.41.75-8.35-7.93,5.38-15.71,10.66-23.49,15.94-.06-.05-.11-.1-.17-.16,3.85-4.2,7.7-8.4,11.68-12.75-3.07-1.13-6.04-2.22-9.01-3.32-.07.09-.14.18-.21.27,1.57,1.1,3.14,2.2,4.71,3.3-.13.15-.25.29-.38.44-1.86-.89-3.72-1.77-5.57-2.67-3.43-1.67-6.86-3.33-10.27-5.04-.58-.29-1.09-.75-1.52-1.22-7.38-7.89-14.75-15.79-22.13-23.68-.26-.28-.54-.54-.94-.94-2.05,2.33-4.04,4.59-6.04,6.85.07.08.14.16.21.25,1.23-.49,2.46-.98,4.04-1.62-2.11,2.44-3.93,4.64-5.89,6.75-.8.86-1.01,1.68-.85,2.74.73,4.75,1.4,9.51,2.08,14.27.06.41.05.83-.09,1.3-1.94-4.92-3.89-9.84-5.91-14.96-1.37,1.23-2.64,2.35-3.89,3.48-4.61,4.19-9.22,8.38-13.8,12.61-.46.42-.8,1.02-.98,1.59-1,3.21-1.93,6.44-3.12,9.67-.07-1.35-.16-2.71-.22-4.06-.09-2.13-.22-4.26-.21-6.39,0-.6.24-1.33.66-1.78,3.62-3.88,7.31-7.7,10.99-11.54.33-.34.76-.6,1.14-.9-.1-.1-.19-.2-.29-.3-4.33,2.5-8.65,5-12.98,7.5-.06-.05-.12-.11-.18-.16,1.98-2.27,3.96-4.53,6.02-6.89-3.21-2.84-6.38-5.65-9.7-8.58-4.25,5.65-8.45,11.22-12.65,16.8.06.06.13.12.19.17,3.4-2.16,6.81-4.32,10.21-6.48.05.05.11.1.16.15-5.83,7.53-11.66,15.06-17.49,22.6-.09-.04-.18-.07-.27-.11.79-2.33,1.58-4.65,2.37-6.98l-.19-.1c-5.28,5.01-10.56,10.02-15.85,15.03-.09-.06-.18-.12-.26-.18,1.78-2.79,3.57-5.58,5.35-8.37-.06-.05-.11-.1-.17-.15-9.81,6.17-19.61,12.33-29.42,18.5-.05-.05-.1-.1-.15-.16,19.24-17.72,38.48-35.44,57.81-53.24,3.11,1.94,6.19,3.86,9.27,5.78.98.61,2,1.18,2.93,1.85.7.5,1.18.43,1.89-.08,8.18-5.97,16.39-11.91,24.59-17.86.14-.1.28-.2.52-.36Z"/>
      <path class="cls-1" d="M161.06,85.51q1.36.22.59,2.12,1.73.48.91,2.47c1.29.35,2.55.94,3.43.15.56-2.28,1.02-4.18,1.49-6.09.1,0,.21,0,.31,0,.4,1.2.8,2.39,1.2,3.59-.13.06-.25.12-.38.19.36.09.71.19,1.2.31-.2.52-.38.97-.58,1.48.37.12.73.25,1.18.4-.12.54-.23,1.01-.33,1.49,8.81,2.21,17.37,4.98,25.24,9.28-3.49-1.09-6.97-2.2-10.47-3.25-12.23-3.69-24.78-5.88-37.71-6.42-8.48-.35-16.96-.25-25.34,1.04-6.2.95-12.36,2.31-18.42,3.86-9.92,2.53-19.75,5.39-29.63,8.07-7.86,2.13-15.78,4.09-23.9,5.16-12.78,1.69-25.05.54-36.35-5.46-1.51-.8-8.19-4.59-9.56-5.59,6.14,2.74,17.65,7.97,24.69,8.41q-1.03-2.35.68-2.9-.9-2.05.7-2.66c-.67-.83-.74-1.48.07-2.47.62-.76.43-2.05.6-3.11.12,0,.25-.02.37-.03.33,1.04.65,2.09,1.04,3.34q.89.46.18,2.15,1.64.56.91,2.5c.6.31,1.6.54,1.66.91.1.59-.42,1.28-.67,1.91.85.16,1.62.3,2.43.46-.23-.44-.72-.95-.67-1.42.04-.36.77-.66,1.41-1.17-.02-.44-2.13-1.59.09-1.88.32-1.74.61-3.36.93-5.11.67,1.3,1.31,2.37,1.78,3.51.15.36-.14.88-.24,1.4,1.7.21,1.06,1.24.78,2.13q1.62.41.89,2.34c1.54.43,7.05-.22,10.5-1.27-1.04-1.04-.56-1.78.67-2.32-.29-.52-.76-.99-.74-1.45.01-.36.63-.7,1.02-1.09-1.16-1.56,1.05-3.02.46-4.7.13-.02.27-.04.4-.06.19.5.34,1.01.56,1.5.25.56.64,1.08.8,1.66.15.51.08,1.08.12,1.72q.8.39,2.07,3.75c-.03-1.49-.89-2.97,1.13-3.61-.45-.8-1.14-1.53-1.23-2.31-.15-1.34,1.32-.74,2.15-1.16-.41-.58-.99-1.1-1.18-1.73-.28-.88.43-1.21,1.35-1.13-.6-1.71-.57-1.86.79-4.71.58,1.58,1.1,2.99,1.68,4.58,1.24.33,1.26.4.36,2.86.74.23,2.13-.32,2.01,1.01-.07.74-.56,1.46-.86,2.19q2.66.27,1.54,3.45c2.92-1.05,5.61-2.01,8.39-3.01-.35-.7-.58-1.16-.85-1.7.47-.19.84-.33,1.29-.51-.19-.53-.36-1.03-.56-1.57.32-.12.63-.24.94-.36-.13-.05-.25-.09-.38-.14.29-1.3.58-2.6.88-3.9.09,0,.18-.01.27-.02.46,1.25.92,2.49,1.47,4,1.02.15.23,1.1.25,1.55.59.53,1.02.91,1.54,1.37.59-.43,1.37-.99,2.27-1.65-.16-.29-.66-.83-.66-1.37,0-.29.86-.59,1.54-1.02.03-.55-2.24-1.85.66-2.17-.85-.88-.83-1.59-.07-2.56.5-.65.32-1.74.63-2.63-.05,1.83,2.28,3.04,1.42,5.03q1.46.41.71,2.45c.45.05.88.09,1.36.14.06.37.12.73.23,1.32,11.36-3.56,22.9-6.15,34.72-7.51,11.84-1.37,23.68-1.37,35.23-.16.63-.62,1.09-1.08,1.78-1.77-.08-.47-1.62-1.57.17-1.91.41-1.84.78-3.46,1.14-5.07.11,0,.21-.02.32-.02.17.57.29,1.16.52,1.71.19.47.62.87.72,1.34.12.55,0,1.15-.02,1.87Z"/>
      <path class="cls-2" d="M120.93,70.34c-4.47,3.28-8.8,6.45-13.13,9.62-.09-.06-.17-.11-.26-.17,2.05-3.41,4.11-6.83,6.26-10.41-2.82-.04-5.45-.09-8.4-.13,1.87-1.78,3.51-3.34,5.22-4.96-3.37-5.51-6.73-11-10.09-16.49.09-.05.17-.1.26-.15,6.67,7.51,13.34,15.03,20.14,22.68Z"/>
      <path class="cls-2" d="M165.25,65.41c3.78,5,7.57,10,11.39,15.05-3.05-2.41-5.94-4.85-9.04-7.07-1.91-1.37-2.7-2.96-2.52-5.11.08-.93-.08-1.88-.13-2.82.1-.02.2-.04.31-.06Z"/>
      <path class="cls-2" d="M82.75,60.09c-4.43,5.54-8.65,10.8-12.86,16.06-.08-.02-.15-.04-.23-.07.59-2.29,1.17-4.58,1.79-6.87.06-.22.32-.41.52-.57,3.35-2.77,6.71-5.53,10.07-8.29.08-.07.22-.08.71-.26Z"/>
    </g>
    <path class="cls-3" d="M43.9,111.21h7.54c.21.19.32.34.32.45h.13v-.13l-.13-.19c.01-.09.05-.13.13-.13.38,0,.74.24,1.1.71v2.64c-.13.37-.34.64-.64.84-.2,0-.35.04-.45.13h-1.35c-.31,0-.5.13-.58.39v3.67c0,.43.39,1.01,1.16,1.74.04.29.06.53.06.71,0,.41-.24.86-.71,1.35-.34.49-.52.86-.52,1.1v4l.77.26.77-.06h5.87c.4,0,.68-.09.84-.26l-.06-.45v-.06c0-1.07.15-1.61.45-1.61,0-.03.13-.1.39-.19h2.06c.64.11.97.45.97,1.03,0,.02.04.09.13.19v1.74l-.13.19v1.16s.04.09.13.19v.77c-.14.77-.33,1.18-.58,1.22,0,.05-.13.14-.39.26h-.52c-.26,0-.75-.04-1.48-.13-.5,0-1.02.02-1.55.06-.89-.04-1.62-.06-2.19-.06-.62,0-1.05.02-1.29.06-.95-.04-1.83-.06-2.64-.06h-3.87c-1.98.09-3.07.13-3.29.13h-.32c-.47-.16-.71-.4-.71-.71-.13,0-.19-.39-.19-1.16v-.97c0-.82.19-1.22.58-1.22,0-.08.15-.12.45-.13h1.55c.08,0,.2-.15.39-.45l-.06-.13v-3.87l-.13-.19.06-.13c-.77-.64-1.16-1.22-1.16-1.74h.06s-.02-.06-.06-.06c.04-.24.06-.41.06-.52l-.06-.13c0-.28.28-.58.84-.9l.32-.52c-.04-.09-.06-.15-.06-.19.09,0,.13-.04.13-.13v-2.45c0-.1.02-.18.06-.26-.04-.08-.06-.16-.06-.26v-.52c0-.1.02-.18.06-.26-.01-.08-.12-.25-.32-.52l-.13.06h-1.74c-.47-.16-.71-.55-.71-1.16,0-.14-.02-.76-.06-1.87.05-.82.29-1.22.71-1.22,0-.04.02-.06.06-.06ZM43.39,131.65v.06c0,.06.06.13.19.19h.06v-.13c0-.09-.04-.13-.13-.13h-.13ZM47.45,125.39v.26c.09,0,.13-.04.13-.13v-.13h-.13ZM51.38,114.82v.13s.11.02.19.06c0-.04.02-.11.06-.19h-.26ZM51.51,111.47l-.06.13.13.06.06-.13-.13-.06ZM52.35,114.11h.19v-.13h-.06c-.09.01-.13.05-.13.13Z"/>
    <path class="cls-3" d="M70.52,120.3s-.02.06-.06.06c.04.09.06.15.06.19h.19c.09-.27.13-.42.13-.45h.13v.06s-.02.06-.06.06l.06.32v.13l-.06.45h.06c.1,0,.25-.24.45-.71l-.06-.13.13-.19v-.06l-.13-.19v-.19c.06,0,.19.15.39.45,0-.17.04-.26.13-.26h.13l.19.13h.9l.19-.13h.32c.14,0,.25.02.32.06.17-.04.32-.06.45-.06.1,0,.33.02.71.06.08-.04.16-.06.26-.06.01.09.05.13.13.13l.19-.13c.1,0,.18.02.26.06l.13-.06.26.06.13-.06.13.06c.24-.04.43-.06.58-.06h.19c.52.17.77.41.77.71.04,0,.06.02.06.06v2.26c-.13.6-.37.9-.71.9v-.06h-.19c0,.17-.04.26-.13.26h-.52c-.49,0-.84-.02-1.03-.06-.41.04-.82.06-1.22.06h-1.48c-.09,0-.13-.09-.13-.26l-.26.19c-.11-.09-.17-.13-.19-.13,0,.04-.28.17-.84.39,0,.3-.09.45-.26.45v.13c.15,0,.24.17.26.52l-.06.64v2.32s-.02.06-.06.06c0,.25.39.42,1.16.52l.32-.06h5.74c.21-.12.32-.2.32-.26v-.97c0-.3.19-.6.58-.9l-.13-.19c.01-.09.05-.13.13-.13.05.21.12.32.19.32.09-.26.17-.39.26-.39h.45c.14.21.27.32.39.32,0-.04.02-.06.06-.06.01.09.05.13.13.13l.13-.06-.06-.13v-.19h.06c.78,0,1.3.13,1.55.39l.26.64v1.22c0,.46-.02.85-.06,1.16.04.27.06.63.06,1.1v.13c0,1.42-.39,2.13-1.16,2.13-.92-.04-1.61-.06-2.06-.06h-6.77c-.11-.09-.17-.13-.19-.13l-.19.13h-3.22c-.88,0-2.08.02-3.61.06-.35,0-.72-.32-1.1-.97l.06-.32v-2.26c.18-.52.57-.77,1.16-.77,0-.04.06-.06.19-.06h.52l.19.13h.19c.29,0,.5-.13.64-.39l-.06-.64v-2.19c0-.18.02-.42.06-.71-.04-.09-.06-.15-.06-.19h.26l-.06-.13v-.13h.19v-.13h-.32v-.13c.09-.17.19-.26.32-.26v-.13h-.19c-.11.09-.19.13-.26.13-.73-.43-1.1-.92-1.1-1.48v-.58c0-.45.32-.88.97-1.29.05-.21.12-.32.19-.32.09.04.15.06.19.06v-.06l-.19-.26.13-.19c-.09-.11-.13-.17-.13-.19v-2.13c0-.73.09-1.1.26-1.1h.13l.19.13.06-.13-.26-.19h-.32c0-.19-.09-.39-.26-.58-.43.04-.75.06-.97.06h-.64c-.69-.08-1.03-.4-1.03-.97v-2.45c.13-.43.43-.73.9-.9h.06c.33,0,1.13.02,2.38.06v.06l-.06.13.13.06c.19-.17.3-.26.32-.26h1.55c0,.17.15.3.45.39.04-.09.06-.15.06-.19-.04-.09-.06-.15-.06-.19h.19v.06l-.06.13.13.06h.26l.32-.06-.06-.13v-.06h3.09c.25,0,.4.02.45.06.24-.04.43-.06.58-.06h4.58c.28,0,.71-.02,1.29-.06.01.09.05.13.13.13.01-.09.05-.13.13-.13h.58c.56.17.84.45.84.84.04,0,.06.06.06.19v1.68c0,.2-.02.42-.06.64.04.16.06.35.06.58v.39c-.08,1.03-.4,1.55-.97,1.55,0,.09-.04.13-.13.13h-1.93c-.52,0-.82-.43-.9-1.29-.18-.3-.31-.45-.39-.45h-6.38l-.26-.19h-.06c0,.26-.11.39-.32.39-.04-.06-.06-.19-.06-.39h-.13c0,.21-.06.32-.19.32-.14-.04-.29-.06-.45-.06-.13.37-.26.62-.39.77v.13c.13,0,.19.04.19.13-.09.04-.15.06-.19.06v.13h.13c.06,0,.15-.09.26-.26v-.06l-.13-.19c.09,0,.13-.06.13-.19l.32.06.06-.13s-.06-.02-.06-.06h.26v.06l-.32.39h-.06v.06c.01.09.05.13.13.13,0-.05.11-.16.32-.32,0,.04.02.06.06.06-.03.21-.14.32-.32.32l.32.39v.71s-.02.06-.06.06l.06.13v.39h-.26v-.13h-.06v.13c.19.09.3.17.32.26v.58c0,.06-.09.13-.26.19,0-.09-.04-.13-.13-.13h-.06c0,.17-.04.26-.13.26s-.13-.04-.13-.13v-.39h-.13c0,.14-.02.25-.06.32l-.13-.06c-.06,0-.15.09-.26.26v.26h.19c0-.26.04-.39.13-.39h.06l-.06.32.13-.06c.09.01.13.05.13.13v.19h-.13c0-.13-.04-.19-.13-.19,0,.09-.09.13-.26.13v.06"/>
    <path class="cls-3" d="M100.81,110.96h2.19c.42,0,.72.19.9.58v5.29c0,.13-.09.19-.26.19l.26.26v1.22c-.13.37-.32.62-.58.77l-.58.06c-1.39,0-2.18-.19-2.38-.58,0-.09-.41-.62-1.22-1.61-.57-.48-.91-.76-1.03-.84-.1,0-.42-.19-.97-.58,0-.16-.82-.31-2.45-.45-1.68.13-2.51.28-2.51.45-.2.18-.63.42-1.29.71-1.24,1.16-1.92,1.93-2.06,2.32l.06.13c-.47.55-.71,1.02-.71,1.42.34.33.54.61.58.84.26,0,.39.06.39.19v.77c0,.41-.32.9-.97,1.48v.39c.5.83.83,1.41.97,1.74,1.12,1.27,1.91,1.93,2.38,2,.56.28.84.56.84.84h.06c.02-.17.09-.26.19-.26h.06c.05.06.31.13.77.19,0,.04.02.06.06.06h1.68l.26.19h.26v-.26c.08-.04.16-.06.26-.06h.52c.31-.11.76-.37,1.35-.77.47-.06,1.35-.88,2.64-2.45v-.06c-.14,0-.25-.02-.32-.06-.47.04-.88.06-1.22.06h-.06c-.62,0-1.05-.02-1.29-.06-.45.04-.95.06-1.48.06h-2.19c-.43-.13-.64-.37-.64-.71l-.06-.13v-.45c0-.1.02-.18.06-.26,0-.04-.02-.06-.06-.06l.06-.45v-.52c0-.9.24-1.35.71-1.35h2.84c.56,0,1.14.02,1.74.06.19-.04.54-.06,1.03-.06.29,0,.55.02.77.06.49-.04.97-.06,1.42-.06h2c.9,0,1.35.28,1.35.84.05,0,.1.09.13.26-.09,1.84-.13,3.6-.13,5.29,0,.85.02,2.12.06,3.8-.1.95-.57,1.42-1.42,1.42h-.39c-.17,0-.34-.02-.52-.06l-.39.06c-.76,0-1.19-.26-1.29-.77-.04,0-.06-.04-.06-.13,0-.04.02-.11.06-.19,0-.04-.02-.11-.06-.19.04-.29.06-.53.06-.71v-.32c-.44.49-.96.84-1.55,1.03,0,.04-.11.15-.32.32l-.13-.06c-.04.09-.06.15-.06.19h-.32c-.1.09-.44.17-1.03.26-.63.34-1.17.54-1.61.58,0-.09-.04-.13-.13-.13h-.06c0,.13-.04.19-.13.19h-1.68c-.06,0-.13-.06-.19-.19l-.13.06-.13-.06c-.08.04-.16.06-.26.06v-.13h-.06c0,.13-.04.19-.13.19-.35,0-.89-.15-1.61-.45-.42-.17-.83-.28-1.22-.32-1.32-.66-2.16-1.17-2.51-1.55-.47-.29-.71-.61-.71-.97-.04,0-.06-.04-.06-.13.04-.09.06-.15.06-.19h-.13l-.26.26c-.09,0-.13-.04-.13-.13h.13v-.19h-.13v.13h-.13l-1.1-1.35v-.13c0-.06.06-.13.19-.19h.13c0,.13.02.19.06.19.12,0,.2-.15.26-.45h-.19v.19h-.13c0-.21-.06-.32-.19-.32h-.06c0,.13-.04.19-.13.19h-.06c-.56-.6-.84-1.2-.84-1.8-.41-1.44-.84-2.32-1.29-2.64-.03,0-.14-.15-.32-.45v-.9c0-.35.3-.76.9-1.22.43-1.06.71-2.01.84-2.84.42-.63.74-1.21.97-1.74l1.03-1.22c1.45-1.39,2.37-2.09,2.77-2.13.05-.24.66-.49,1.8-.77.82-.39,1.53-.58,2.13-.58h2.9c.35,0,1.15.26,2.38.77.31,0,.76.24,1.35.71,0-.39.02-.64.06-.77-.04-.08-.06-.18-.06-.32.21-.23.49-.4.84-.52ZM84.64,125.59c.17,0,.26.06.26.19h.19v-.13c0-.06-.06-.13-.19-.19h-.13c-.09.01-.13.05-.13.13ZM84.89,125.97v.32h.13v-.32h-.13ZM85.28,126.94v.26c.09,0,.13-.04.13-.13v-.13h-.13ZM85.35,126.3c.01.09.05.13.13.13l.06-.13v-.13h-.06c-.09.01-.13.05-.13.13ZM85.41,125.27v.13c.01.09.05.13.13.13M85.86,126.94v.13h.19v-.26h-.06c-.09.01-.13.05-.13.13ZM85.93,127.97v.13h.13v-.13h-.13ZM86.05,128.42v.06c.1,0,.18.02.26.06v-.26h-.13c-.09.01-.13.05-.13.13ZM86.57,128.1v.13h.13v-.26c-.09.01-.13.05-.13.13ZM86.76,128.68v.19h.13s.02-.11.06-.19h-.19ZM86.89,128.1v.13c.09,0,.13-.04.13-.13h-.13ZM87.02,127.71v.13h.06v-.13h-.06ZM87.34,128.36v.13h.13v-.13h-.13ZM87.54,127.71l-.06.13h.19c0-.09-.04-.13-.13-.13ZM87.47,129.78h.13v-.13c-.09.01-.13.05-.13.13ZM87.79,130.03l.19.13s.02-.06.06-.06c-.04-.09-.06-.15-.06-.19h-.06c-.09.01-.13.05-.13.13ZM88.18,129.65v.19h.13v-.19h-.13ZM88.37,130.29h.13v-.13c-.09.01-.13.05-.13.13ZM88.7,130.87v.13h.19v-.13h-.19ZM89.21,130.49v.13c.09,0,.13-.04.13-.13v-.13c-.09.01-.13.05-.13.13ZM90.57,116.18l-.06.13v.13c.01.09.05.13.13.13l.06-.32-.13-.06ZM90.82,130.87v.06h.13v-.06h-.13ZM92.11,131.52c0,.06.06.13.19.19h.13v-.19h-.32ZM92.63,131.52v.13h.19c.09,0,.13-.04.13-.13h-.32ZM93.79,124.43v.13h.19v-.13h-.19ZM93.92,121.59v.26c.09,0,.13-.04.13-.13v-.13h-.13ZM93.98,131.32l.13.06.06-.13v-.06h-.06c-.09.01-.13.05-.13.13ZM97.59,128.49v.06c.04.13.17.19.39.19,0-.06-.09-.15-.26-.26h-.13ZM97.72,113.86v.13h.19v-.13h-.19ZM97.78,130.74c.01.09.05.13.13.13l.06-.13h-.19ZM98.11,131.65c.01.09.05.13.13.13h.06v-.13h-.19ZM99.59,113.99v.13c.09,0,.19.09.32.26l.06-.13v-.06c0-.06-.06-.13-.19-.19h-.19ZM99.91,122.3v.06h.13v-.06h-.13ZM100.04,114.95v.32h.06c.06,0,.13-.06.19-.19l-.19-.13h-.06ZM100.1,130.29l-.06.13.13.06.06-.13-.13-.06ZM100.3,111.54v.26h.13v-.26h-.13ZM100.81,117.66v.13c.01.09.05.13.13.13h.19v-.13c0-.09-.04-.13-.13-.13h-.19ZM101.07,111.79c0,.09-.04.13-.13.13v.13h.13c0-.06.06-.15.19-.26h-.19ZM101.01,118.05v.13c.09,0,.13-.04.13-.13h-.13ZM101.07,114.18c.04.09.06.15.06.19h.19s.02-.11.06-.19l-.13-.06h-.06l-.13.06ZM101.52,117.53l-.06.13v.06c.01.09.05.13.13.13l.06-.13v-.06c0-.09-.04-.13-.13-.13ZM103.33,117.92v.26h.19v-.13c0-.09-.04-.13-.13-.13h-.06ZM104.23,128.29c0,.05.13.18.39.39.09-.04.15-.06.19-.06,0-.05-.15-.16-.45-.32h-.13ZM104.81,129.39h.19v-.19c-.06,0-.13.06-.19.19Z"/>
    <path class="cls-3" d="M118.33,126.36l-.06.13c.04.09.06.15.06.19l-.13.06h-.52c-.13,0-.19-.02-.19-.06l-.32.06h-2.13l-.32-.06c-.12.27-.25.46-.39.58l-.52.84v.26c.09,0,.13.04.13.13l.13-.06h1.16c.33.15.59.43.77.84v2.58c-.14.42-.35.72-.64.9-.06,0-.15.04-.26.13h-3.16l-.13-.06.06-.13v-.06c0-.09-.04-.13-.13-.13h-.06c-.06,0-.13.06-.19.19.09.01.13.05.13.13l-.13.06h-4.58c-.34-.15-.6-.39-.77-.71h-.06l.06-.13v-.39l-.19-.26v-.97c0-.09.06-.13.19-.13v-1.22c.11-.43.47-.64,1.1-.64l.19-.13h.84s.02.11.06.19l.13-.06h.13l.13.06c.01-.15.14-.28.39-.39v-.45c.34-.77.58-1.16.71-1.16l-.06-.13.26-.71s.06-.02.06-.06c-.04,0-.06-.02-.06-.06.06,0,.13-.06.19-.19-.04,0-.06-.02-.06-.06.06,0,.13-.06.19-.19-.04,0-.06-.02-.06-.06.05,0,.16-.11.32-.32-.04,0-.06-.02-.06-.06.06,0,.13-.06.19-.19-.04-.09-.06-.15-.06-.19.08,0,.18-.19.32-.58v-.45h-.13v-.39c-.13,0-.19-.04-.19-.13v-.9c0-.09.06-.13.19-.13v-.39c.1,0,.16-.09.19-.26,1-.53,1.54-1,1.61-1.42l.52-.9c.26-.58.39-1.01.39-1.29.52-.62.77-1.18.77-1.68l.19-.13-.06-.13v-.06c0-.05.11-.16.32-.32l-.06-.13v-.06c.08,0,.18-.06.32-.19l-.06-.13v-.19s.11-.02.19-.06l-.06-.13v-.13c0-.09.06-.13.19-.13l-.06-.32c.1,0,.23-.19.39-.58.13,0,.32-.45.58-1.35l.64-.58h1.74l.19-.13h1.29c0,.06.21.21.64.45,0,.12.17.4.52.84,0,.03.11.23.32.58v.19c.09.01.13.05.13.13v.06l-.06.32s.11.02.19.06l-.06.13v.06c.13,0,.19.04.19.13l-.06.13c.14.13.25.19.32.19v.06l-.06.13c.09.04.15.06.19.06v.19l-.06.13c.09.04.15.06.19.06v.45c.14.34.27.58.39.71-.04,0-.06.02-.06.06.06,0,.13.06.19.19-.24,0-.37.17-.39.52l.13.06h.06v-.32c.01-.09.05-.13.13-.13h.06l-.06.32v.19l.13-.06h.13c.12,0,.25.37.39,1.1.2.16.4.46.58.9v.32c.1,0,.2.19.32.58.27.19.53.47.77.84.2,0,.53.17.97.52v.13l-.39.26c.39.05.58.12.58.19,0,.04-.02.11-.06.19.04.24.06.43.06.58v.19c-.26.29-.39.55-.39.77.04.24.21.56.52.97-.04,0-.06.02-.06.06.05,0,.16.11.32.32v.19l-.06.13c.06,0,.13.06.19.19v.06l-.06.13c.11,0,.19.17.26.52.31.2.59.89.84,2.06.17.02.26.11.26.26l.13-.06h.13c.09,0,.13.06.13.19l.13-.06h.39l.13.06c0-.06.06-.13.19-.19h.71c.06,0,.13.06.19.19l.13-.06h.19c.06,0,.13.06.19.19l.13-.06c.09.01.13.05.13.13l-.06.13c.06,0,.13.06.19.19v.71l-.06.13c.06,0,.13.06.19.19v1.48s-.11.02-.19.06l.06.13v.39c0,.09-.06.13-.19.13v.06l.06.13c-.06,0-.26.15-.58.45h-5.87c-.39-.08-.58-.25-.58-.52-.09.01-.13.05-.13.13l.13.19v.19h-1.68s-.06-.02-.06-.06l-.13.06h-.26c-.29-.18-.5-.48-.64-.9v-2.84c.15-.31.32-.55.52-.71h1.22l.32.06v-.06c-.1-.11-.27-.49-.52-1.16.01-.09.05-.13.13-.13.04.09.06.15.06.19h.13v-.13c-.15-.26-.26-.39-.32-.39-.11.09-.17.13-.19.13h-.06v-.13l-.13.06c-.09,0-.13-.06-.13-.19l-.13.06h-1.1c-.06,0-.15-.09-.26-.26v-.06l.26-.26M121.23,126.17,113.37,119.08v.13h.19c0-.09-.04-.13-.13-.13h-.06ZM115.3,114.5v.26h.19v-.13c0-.09-.04-.13-.13-.13h-.06ZM118.59,117.34c-.11.39-.21.58-.32.58v.32c0,.09-.06.13-.19.13l.06.13v.26c-.11.34-.21.52-.32.52-.04.2-.17.4-.39.58.04.08.06.16.06.26-.09.04-.15.06-.19.06v.06l.06.13c-.09.04-.15.06-.19.06l.06.32v.06l-.19.26s.06.02.06.06c-.09.04-.15.06-.19.06v.06l.06.13s-.24.26-.58.77c.02,0,.09.04.19.13h.26c.17,0,.45.04.84.13.01-.09.05-.13.13-.13h1.87l.26.19h.13c0-.13.04-.19.13-.19h.45v-.06c-.17-.24-.32-.64-.45-1.22-.08,0-.18-.13-.32-.39h-.06l.06-.13v-.06c-.13,0-.19-.06-.19-.19v-.19c-.09,0-.13-.04-.13-.13v-.06l.06-.32s-.11-.02-.19-.06l.06-.13v-.06c-.13,0-.19-.04-.19-.13l.06-.13c-.13,0-.19-.04-.19-.13l.06-.13c-.21-.12-.32-.2-.32-.26l.06-.13c-.13,0-.19-.04-.19-.13v-.39l.06-.13c-.06,0-.13-.06-.19-.19.04-.09.06-.15.06-.19h-.13ZM121.75,129.71v.13h.06c.09,0,.13-.04.13-.13h-.19ZM122.65,126.62v.13c.09,0,.13-.04.13-.13h-.13ZM123.36,129.58c.05.26.12.39.19.39h.13v-.32l-.32-.06ZM125.48,124.36v.06h.19v-.06h-.19ZM125.81,122.43v.26c.09,0,.13-.04.13-.13s-.04-.13-.13-.13ZM125.81,123.65v.13h.13c0-.09-.04-.13-.13-.13ZM125.81,125.07v.13h.13v-.13h-.13ZM126,124.88v.19h.06c.09,0,.13-.04.13-.13v-.13c-.09.04-.15.06-.19.06Z"/>
    <path class="cls-3" d="M149.78,111.28c.47.18.71.5.71.97.04,0,.06.02.06.06v1.61l-.13.19v3.29l.13.19v.64l-.32.9-.45.26h-.58l-.19.13h-1.22c-.68-.19-1.3-.84-1.87-1.93-.88-.76-1.44-1.17-1.68-1.22,0-.03-.17-.16-.52-.39-.09.04-.15.06-.19.06,0-.04-.19-.21-.58-.52v-.06h.13v-.13h-.13c-.09,0-.13.09-.13.26h-.39c-.09,0-.13-.06-.13-.19l-.45.06h-1.8l-.19.13h-.58c-.1,0-.55.26-1.35.77-.76.35-1.45.91-2.06,1.68l-.97,1.35c-.05.33-.12.55-.19.64v.58l.71,1.03v.9c-.24.44-.47.78-.71,1.03v.39c0,.52.19,1.01.58,1.48.55.9,1.04,1.46,1.48,1.68.05.26.72.64,2,1.16,0,.06.21.19.64.39h.97l.19.13h1.29l.19-.13h.84c1.43-.77,2.16-1.2,2.19-1.29.69-.54,1.03-.86,1.03-.97l.32.06.06-.13v-.06c-.09-.11-.13-.17-.13-.19l.71-.32c.45,0,.82.17,1.1.52v.06c-.06,0-.15.04-.26.13,0-.04-.02-.06-.06-.06v.19h.58l.26-.26,1.1,1.03-.06.39c.04.23.06.44.06.64,0,.08-.24.33-.71.77-.48.67-1,1.14-1.55,1.42-.44.45-.96.77-1.55.97-.45.39-.86.58-1.22.58-.76.13-1.45.32-2.06.58h-.58c-.11.09-.19.13-.26.13-.4-.09-.63-.13-.71-.13,0,.09-.04.13-.13.13h-.84l-.19-.13h-.71c-.45-.26-1.29-.49-2.51-.71l-.9-.58c-.26,0-.84-.39-1.74-1.16-.12,0-.38-.24-.77-.71l.06-.39c-.11.09-.17.13-.19.13h-.06c-.56-.53-.84-.91-.84-1.16-.12,0-.23-.11-.32-.32v-.06h.26v-.13h-.26v.13c-.09,0-.13-.04-.13-.13.14-.25.29-.42.45-.52h.06v.13h.19l.13-.06c.04.09.06.15.06.19h.13v-.32c0-.09-.04-.13-.13-.13v.13l-.32-.06v-.13c.25-.39.46-.58.64-.58l-.06-.13v-.06c.14-.42.33-.7.58-.84v-.06l-.39-.13c0,.26-.11.39-.32.39v.39l-1.03,1.61-.13.06c-.14-.2-.25-.53-.32-.97-.05,0-.14-.11-.26-.32l.06-.13c-.13,0-.19-.04-.19-.13v-.06c0-.09.06-.13.19-.13v-.06c-.3,0-.45-.06-.45-.19v-.06l.06-.13c-.17,0-.26-.26-.26-.77-.04,0-.06-.02-.06-.06v-.19c0-.1.02-.18.06-.26-.21-.39-.43-.62-.64-.71-.16-.18-.31-.4-.45-.64v-1.22c.69-.68,1.03-1.08,1.03-1.22,0-.26.04-.43.13-.52v-.58l.64-1.16s.02-.06.06-.06l-.06-.13v-.06c.13-.13.24-.39.32-.77.4-.43.78-.99,1.16-1.68.32-.25.62-.57.9-.97.98-.81,1.79-1.36,2.45-1.68.24-.3.56-.45.97-.45.56-.08.95-.2,1.16-.39.09.04.15.06.19.06,0-.04.15-.15.45-.32h.19l.13.06c0-.06.06-.13.19-.19h3.29c.06,0,.13.06.19.19l.13-.06h.06l.26.19c.09-.04.15-.06.19-.06,0,.06.06.13.19.19.09-.04.15-.06.19-.06,0,.11.17.19.52.26.6,0,1.18.28,1.74.84h.06c.09,0,.13-.04.13-.13v-.71c.1-.38.29-.63.58-.77h2.84ZM130.64,124.11h.19v-.13h-.06c-.09.01-.13.05-.13.13ZM134.51,125.72v.13h.06v-.13h-.06ZM134.57,125.59v.06h.13v-.06h-.13ZM134.76,114.05v.13h.06v-.13h-.06ZM135.41,114.05v.13h.06v-.13h-.06ZM136.18,130.74v.13h.06v-.13h-.06ZM139.02,114.57v.19h.19v-.19h-.19ZM139.08,113.86v.13h.06v-.13h-.06ZM139.15,115.21v.13h.13v-.13h-.13ZM140.76,114.44v.13h.06v-.13h-.06ZM140.76,114.95v.13h.06v-.13h-.06ZM141.02,114.37v.19h.19v-.06c0-.09-.04-.13-.13-.13h-.06ZM141.53,114.69v.13h.26v-.06l-.06-.13c-.09.04-.15.06-.19.06ZM144.24,130.81v.13c0,.09.06.13.19.13.09-.04.15-.06.19-.06-.04-.13-.17-.19-.39-.19ZM144.37,131.19v.13h.19v-.13h-.19ZM145.08,130.49l-.06.13c.01.09.05.13.13.13l.06-.13c0-.09-.04-.13-.13-.13ZM146.24,126.94v.19h.19v-.19h-.19ZM146.37,126.62v.13h.13v-.13h-.13ZM146.62,126.55v.19c.09,0,.13-.04.13-.13l-.13-.06ZM146.69,126.3v.19h.06c.09,0,.13-.04.13-.13l-.13-.06h-.06ZM147.27,127.01v.13h.13v-.13h-.13ZM147.27,127.39v.13h.13v-.13h-.13ZM147.27,128.29v.19h.13v-.19h-.13ZM147.53,126.49v.32l.26.06v-.06c-.09-.11-.13-.21-.13-.32h-.13ZM147.53,127.01v.39h.26v-.39h-.26ZM147.53,128.55v.06c.01.09.05.13.13.13.09,0,.13-.04.13-.13v-.06h-.26ZM148.36,126.23c.09.01.13.05.13.13l-.13.06h-.13v-.06c.01-.09.05-.13.13-.13ZM148.24,126.88v.13h.19c.09,0,.13-.04.13-.13l-.13-.06c-.09.04-.15.06-.19.06ZM148.24,127.52v.13h.06v-.13h-.06Z"/>
    <path class="cls-3" d="M150.09,111.41h4c.1,0,.18.02.26.06.08-.04.16-.06.26-.06h3.74c.3.12.56.35.77.71v2.32l-.26.71-.39.32h-.97c-.09.01-.13.05-.13.13v.13c.32.32.6.71.84,1.16,0,.25.24.66.71,1.22,0,.2.28.72.84,1.55.17.57.32.87.45.9h.13c.17,0,.37-.41.58-1.22.27-.14.53-.55.77-1.22.02-.11.28-.49.77-1.16,0-.32.26-.75.77-1.29,0-.06-.06-.13-.19-.19h-1.22c-.29-.12-.55-.35-.77-.71v-2.71c.25-.39.57-.58.97-.58,0-.04.02-.06.06-.06h7.86c.64.21.97.49.97.84.04,0,.06.02.06.06v2.19c-.24.6-.54.9-.9.9,0,.04-.02.06-.06.06h-1.8c-.26.17-.58.58-.97,1.22-.1,0-.29.37-.58,1.1-.43.53-.67.96-.71,1.29-.46.61-.78,1.19-.97,1.74v.06l.26.58v.84c-.22.28-.74.71-1.55,1.29-.21.16-.32.29-.32.39-.41.3-.75.73-1.03,1.29v1.03c-.09.3-.13.47-.13.52v.19l.13.19v.32l-.13.19c.09.01.13.05.13.13v.45s-.04.09-.13.19v.06c.37.3.73.45,1.1.45l.13-.06h1.16c.21.15.39.37.52.64v2.26c-.14.42-.35.72-.64.9h-.06s-.06-.02-.06-.06l-.13.06h-.06c-.22,0-.42-.02-.58-.06-.22.04-.44.06-.64.06h-.13c-.26,0-.39-.09-.39-.26l.06-.32c-.21,0-.32-.04-.32-.13v-.06c.17,0,.26-.13.26-.39-.17-.06-.26-.13-.26-.19.04-.13.09-.19.13-.19-.09-.17-.13-.41-.13-.71.08-.04.16-.06.26-.06v-.06c0-.09-.09-.13-.26-.13v-.06c.13-.17.19-.3.19-.39l-.13-.06c-.06,0-.15.09-.26.26,0,.04.02.11.06.19-.03.26-.07.39-.13.39l.06.13c0,.11-.02.28-.06.52.04.3.06.56.06.77h-.13v-.45h-.06c-.09.01-.13.05-.13.13,0,.29.11.53.32.71,0,.09-.09.13-.26.13v.13h.19v.13h-3.48l-.19.13h-1.29s-.06-.02-.06-.06l-.13.06h-.52c-.47-.19-.71-.56-.71-1.1-.04,0-.06-.02-.06-.06v-2c.13-.4.3-.66.52-.77.16,0,.29-.04.39-.13h1.1l.19.13h.19c.23-.08.4-.29.52-.64l-.06-.45v-.58s.02-.06.06-.06l-.06-.13v-.52c0-.18.02-.35.06-.52,0-.66-.28-1.26-.84-1.8v-.06l.06-.13c-.06,0-.34-.19-.84-.58-.78-.54-1.21-.88-1.29-1.03v-1.1l.13-.19v-.58c-.02-.11-.24-.45-.64-1.03l.06-.32c-.12,0-.33-.28-.64-.84-.2,0-.46-.47-.77-1.42-.1,0-.2-.15-.32-.45-.06,0-.21-.26-.45-.77-.19-.17-.3-.26-.32-.26h-1.1l-.19.13h-1.03c-.31-.13-.53-.32-.64-.58l-.06-.13v-3.03c0-.05.21-.2.64-.45ZM149.9,114.69v.13h.19v-.13h-.19ZM149.96,113.92v.13c.09,0,.13-.04.13-.13h-.13ZM152.28,113.6l.13.06.13-.19v-.06c-.17.06-.26.13-.26.19ZM155.37,118.76v.13h.06v-.13h-.06ZM155.76,111.99l.06.39h.13l.13-.06-.06-.13.13-.19c0-.09-.04-.13-.13-.13h-.13c-.09.01-.13.05-.13.13ZM155.89,111.6c.01.09.05.13.13.13.09,0,.13-.04.13-.13h-.26ZM156.34,113.34v.13h.06v-.13h-.06ZM156.34,132.23v.13c.01.09.05.13.13.13,0-.04.02-.06.06-.06-.04-.09-.06-.15-.06-.19h-.13ZM156.47,120.95v.06c.04.13.17.19.39.19v-.26c0-.09-.04-.13-.13-.13-.11.09-.19.13-.26.13ZM156.53,120.5v.19h.13v-.19h-.13ZM156.53,121.46l.13.06.06-.13v-.06h-.06c-.09.01-.13.05-.13.13ZM156.6,113.53c.01.09.05.13.13.13l.06-.13h-.19ZM156.73,115.73v.13h.19c0-.09-.04-.13-.13-.13h-.06ZM157.05,132.16v.06h.19v-.19h-.06c-.09.01-.13.05-.13.13ZM157.24,120.3v.19h.13v-.19h-.13ZM158.85,124.11v.13h.32v-.13h-.32ZM159.37,119.85l-.13.19.13.06c.09,0,.13-.04.13-.13s-.04-.13-.13-.13ZM160.53,129.45l.13.06h.13v-.19h-.13c-.09.01-.13.05-.13.13ZM161.17,130.94v.13h.13v-.13h-.13ZM161.69,122.88l.13.06c.04-.15.06-.24.06-.26-.06,0-.13.06-.19.19ZM161.69,124.43v.19h.26v-.19c0-.09-.04-.13-.13-.13-.09.01-.13.05-.13.13ZM161.95,127.07h.13v-.13c-.09.01-.13.05-.13.13ZM162.08,127.26v.13h.13v-.13h-.13ZM162.08,129.33v.26h.06c.09,0,.13-.04.13-.13v-.26h-.06c-.09.01-.13.05-.13.13ZM162.2,124.88h.13v-.13c-.09.01-.13.05-.13.13ZM162.4,122.75v.19h.19v-.19h-.19ZM162.4,131.07v.26h.06l.06-.45c-.09,0-.13.06-.13.19ZM162.46,129.33v.06c.01.09.05.13.13.13v-.19h-.13ZM162.53,131.78l-.06.13v.13h.06c.09,0,.13-.04.13-.13s-.04-.13-.13-.13ZM162.66,121.2c-.04.09-.06.15-.06.19.04.09.06.15.06.19.06,0,.13-.06.19-.19,0-.06-.06-.13-.19-.19ZM162.66,131.52v.13h.13v-.13h-.13Z"/>
    <text class="cls-5" transform="translate(62.18 144.56)"><tspan x="0" y="0">Land &amp; Cattle, LLC</tspan></text>
  </g>
  <g id="Layer_3" data-name="Layer 3">
    <path class="cls-3" d="M47.82,126.03c.64,0,.64-1,0-1s-.64,1,0,1h0Z"/>
    <path class="cls-3" d="M44.42,132.34c.64,0,.64-1,0-1s-.64,1,0,1h0Z"/>
    <path class="cls-3" d="M51.58,114.55c.64,0,.64-1,0-1s-.64,1,0,1h0Z"/>
    <path class="cls-3" d="M51.79,114.27c.64,0,.64-1,0-1s-.64,1,0,1h0Z"/>
    <path class="cls-3" d="M51.58,112.85c.64,0,.64-1,0-1s-.64,1,0,1h0Z"/>
  </g>
</svg>